<svg width="35" height="35" viewBox="0 0 35 35" fill="none" xmlns="http://www.w3.org/2000/svg">
<path d="M17.5 0C7.81395 0 0 7.81395 0 17.5C0 27.186 7.81395 35 17.5 35C27.186 35 35 27.186 35 17.5C35 7.81395 27.186 0 17.5 0ZM6.9186 11.1512C6.9186 11.0698 6.9186 10.9884 7 10.907C7.0814 10.8256 7.16279 10.8256 7.24419 10.8256H9.84884C11.8023 10.8256 13.4302 11.7209 14.6512 13.4302C14.1628 14.1628 13.6744 15.2209 13.0233 16.6047C12.8605 16.2791 12.6977 15.9535 12.6163 15.7907C12.5349 15.5465 12.3721 15.3023 12.1279 15.0581C11.9651 14.814 11.7209 14.5698 11.5581 14.407C11.3953 14.2442 11.0698 14.0814 10.8256 14C10.5 13.9186 10.1744 13.8372 9.84884 13.8372H7.32558C7.24419 13.8372 7.16279 13.8372 7.0814 13.7558C7 13.6744 7 13.593 7 13.5116V11.1512H6.9186ZM28 23.0349L24.2558 26.7791C24.093 26.8605 24.0116 26.8605 23.9302 26.8605C23.8488 26.8605 23.7674 26.8605 23.686 26.7791C23.6047 26.6977 23.6047 26.6163 23.6047 26.5349V24.2558C23.3605 24.2558 23.0349 24.2558 22.6279 24.2558C22.2209 24.2558 21.8953 24.2558 21.6512 24.2558C21.407 24.2558 21.1628 24.2558 20.7558 24.2558C20.4302 24.2558 20.1047 24.2558 19.9419 24.1744C19.6977 24.1744 19.4535 24.093 19.2093 24.0116C18.8837 23.9302 18.6395 23.8488 18.4767 23.7674C18.314 23.686 18.0698 23.6047 17.8256 23.4419C17.5814 23.2791 17.3372 23.1163 17.093 22.9535C16.8488 22.7907 16.686 22.5465 16.4419 22.3023C16.1977 22.0581 15.9535 21.814 15.7907 21.4884C16.2791 20.7558 16.7674 19.6977 17.4186 18.314C17.5814 18.6395 17.7442 18.9651 17.8256 19.1279C17.907 19.3721 18.0698 19.6163 18.314 19.8605C18.4767 20.1047 18.7209 20.3488 18.8837 20.5116C19.0465 20.6744 19.3721 20.8372 19.6163 20.9186C19.9419 21 20.2674 21.0814 20.593 21.0814H23.6047V18.8023C23.6047 18.7209 23.6047 18.6395 23.686 18.5581C23.7674 18.4767 23.8488 18.4767 23.9302 18.4767C24.0116 18.4767 24.093 18.4767 24.1744 18.5581L27.9186 22.3023C28 22.3837 28 22.4651 28 22.5465C28.0814 22.8721 28.0814 22.9535 28 23.0349ZM28 12.5349L24.1744 16.2791C24.093 16.3605 24.0116 16.3605 23.9302 16.3605C23.8488 16.3605 23.7674 16.3605 23.686 16.2791C23.6047 16.1977 23.6047 16.1163 23.6047 16.0349V13.7558H20.593C20.186 13.7558 19.8605 13.8372 19.5349 13.9186C19.2093 14 18.9651 14.2442 18.7209 14.407C18.4767 14.6512 18.314 14.8953 18.1512 15.1395C17.9884 15.3837 17.8256 15.7093 17.5814 16.0349C17.3372 16.5233 17.0116 17.1744 16.686 18.0698C16.4419 18.5581 16.2791 19.0465 16.1163 19.3721C15.9535 19.6977 15.7093 20.1047 15.4651 20.593C15.2209 21.0814 14.9767 21.4884 14.7326 21.7326C14.4884 22.0581 14.1628 22.3837 13.8372 22.7093C13.5116 23.0349 13.1047 23.2791 12.7791 23.5233C12.4535 23.686 11.9651 23.8488 11.5581 24.0116C11.1512 24.1744 10.5814 24.1744 10.0116 24.1744H7.32558C7.24419 24.1744 7.16279 24.1744 7.0814 24.093C7 24.0116 7 23.9302 7 23.8488V21.5698C7 21.4884 7 21.407 7.0814 21.3256C7.16279 21.2442 7.24419 21.2442 7.32558 21.2442H9.93023C10.3372 21.2442 10.6628 21.1628 10.9884 21.0814C11.314 21 11.5581 20.7558 11.8023 20.593C12.0465 20.3488 12.2093 20.1047 12.3721 19.8605C12.5349 19.6163 12.6977 19.2907 12.9419 18.9651C13.186 18.4767 13.5116 17.8256 13.8372 16.9302C14.0814 16.4419 14.2442 15.9535 14.407 15.6279C14.5698 15.3023 14.814 14.8953 15.0581 14.407C15.3023 13.9186 15.5465 13.5116 15.7907 13.2674C16.0349 12.9419 16.3605 12.6163 16.686 12.2907C17.0116 11.9651 17.4186 11.7209 17.7442 11.4767C18.0698 11.314 18.5581 11.1512 18.9651 10.9884C19.4535 10.8256 19.9419 10.8256 20.5116 10.8256H23.5233V8.54651C23.5233 8.46512 23.5233 8.38372 23.6047 8.30233C23.686 8.22093 23.7674 8.22093 23.8488 8.22093C23.9302 8.22093 24.0116 8.22093 24.093 8.30233L27.8372 12.0465C27.9186 12.1279 27.9186 12.2093 27.9186 12.2907C28.0814 12.3721 28.0814 12.4535 28 12.5349Z" fill="white"/>
</svg>
